HIERARCHY
ROOT Hips
{
	OFFSET	0.00	0.00	0.00
	CHANNELS 6 Xposition Yposition Zposition Zrotation Xrotation Yrotation
	JOINT LeftUpLeg
	{
		OFFSET	 0.126116	-0.014019	-0.065224
		CHANNELS 3 Zrotation Xrotation Yrotation
		JOINT LeftLeg
		{
			OFFSET	 0.000000	 0.000000	 0.569914
			CHANNELS 3 Zrotation Xrotation Yrotation
			JOINT LeftFoot
			{
				OFFSET	 0.000000	 0.000000	 0.544423
				CHANNELS 3 Zrotation Xrotation Yrotation
				JOINT LeftToeBase
				{
					OFFSET	 0.000000	 0.000000	 0.207117
					CHANNELS 3 Zrotation Xrotation Yrotation
					End Site
					{
						OFFSET	 0.000000	 0.000000	 0.207117
					}
				}
			}
		}
	}
	JOINT RightUpLeg
	{
		OFFSET	-0.124023	-0.008373	-0.065224
		CHANNELS 3 Zrotation Xrotation Yrotation
		JOINT RightLeg
		{
			OFFSET	 0.000000	 0.000000	 0.570047
			CHANNELS 3 Zrotation Xrotation Yrotation
			JOINT RightFoot
			{
				OFFSET	 0.000000	 0.000000	 0.544354
				CHANNELS 3 Zrotation Xrotation Yrotation
				JOINT RightToeBase
				{
					OFFSET	 0.000000	 0.000000	 0.207540
					CHANNELS 3 Zrotation Xrotation Yrotation
					End Site
					{
						OFFSET	 0.000000	 0.000000	 0.207540
					}
				}
			}
		}
	}
	JOINT Spine
	{
		OFFSET	 0.000184	-0.007763	 0.117403
		CHANNELS 3 Zrotation Xrotation Yrotation
		JOINT Spine1
		{
			OFFSET	 0.000000	 0.000000	 0.137269
			CHANNELS 3 Zrotation Xrotation Yrotation
			JOINT Spine2
			{
				OFFSET	 0.000000	 0.000000	 0.156879
				CHANNELS 3 Zrotation Xrotation Yrotation
				JOINT LeftShoulder
				{
					OFFSET	 0.080501	-0.002496	 0.160144
					CHANNELS 3 Zrotation Xrotation Yrotation
					JOINT LeftArm
					{
						OFFSET	 0.000000	 0.000000	 0.164363
						CHANNELS 3 Zrotation Xrotation Yrotation
						JOINT LeftForeArm
						{
							OFFSET	 0.000000	 0.000000	 0.364576
							CHANNELS 3 Zrotation Xrotation Yrotation
							JOINT LeftHand
							{
								OFFSET	 0.000000	 0.000000	 0.360812
								CHANNELS 3 Zrotation Xrotation Yrotation
								JOINT LeftHandIndex1
								{
									OFFSET	 0.000000	 0.000000	 0.086006
									CHANNELS 3 Zrotation Xrotation Yrotation
									JOINT LeftHandIndex2
									{
										OFFSET	 0.000000	 0.000000	 0.047237
										CHANNELS 3 Zrotation Xrotation Yrotation
										JOINT LeftHandIndex3
										{
											OFFSET	-0.004284	-0.000551	 0.038165
											CHANNELS 3 Zrotation Xrotation Yrotation
											End Site
											{
												OFFSET	-0.004284	-0.000551	 0.038165
											}
										}
									}
								}
							}
						}
					}
				}
				JOINT Neck
				{
					OFFSET	 0.000000	 0.000000	 0.176489
					CHANNELS 3 Zrotation Xrotation Yrotation
					JOINT Head
					{
						OFFSET	 0.000000	-0.001747	 0.077940
						CHANNELS 3 Zrotation Xrotation Yrotation
						End Site
						{
							OFFSET	 0.000000	-0.001747	 0.077940
						}
					}
				}
				JOINT RightShoulder
				{
					OFFSET	-0.080363	 0.000306	 0.159706
					CHANNELS 3 Zrotation Xrotation Yrotation
					JOINT RightArm
					{
						OFFSET	 0.000000	 0.000000	 0.164196
						CHANNELS 3 Zrotation Xrotation Yrotation
						JOINT RightForeArm
						{
							OFFSET	 0.000000	 0.000000	 0.365611
							CHANNELS 3 Zrotation Xrotation Yrotation
							JOINT RightHand
							{
								OFFSET	 0.000000	 0.000000	 0.360648
								CHANNELS 3 Zrotation Xrotation Yrotation
								JOINT RightHandIndex1
								{
									OFFSET	 0.000000	 0.000000	 0.069977
									CHANNELS 3 Zrotation Xrotation Yrotation
									JOINT RightHandIndex2
									{
										OFFSET	 0.000000	 0.000000	 0.052305
										CHANNELS 3 Zrotation Xrotation Yrotation
										JOINT RightHandIndex3
										{
											OFFSET	 0.009002	-0.000782	 0.042196
											CHANNELS 3 Zrotation Xrotation Yrotation
											End Site
											{
												OFFSET	 0.009002	-0.000782	 0.042196
											}
										}
									}
								}
							}
						}
					}
				}
			}
		}
	}
}
MOTION
Frames:    10
Frame Time: 0.03333334
-0.400863	 0.187354	 1.239634	-174.480500	 8.684051	 14.947030	 33.160940	-13.579710	 169.131100	-8.883329	-44.467830	-6.646737	 140.767900	 76.583110	-153.073900	-2.385833	 28.452760	 0.000004	-25.835580	-37.725280	 153.057300	 5.814620	-50.350370	 3.307169	-4.893174	 73.536220	 24.381610	 2.384659	 28.388700	-0.000001	 80.284910	-19.985570	 3.302446	 46.000800	 21.134940	 16.299430	-7.472135	-2.166140	-16.467900	-91.776180	 78.527350	 180.000000	-4.164368	 42.145810	-10.498200	-2.625113	-4.193513	-99.203320	 4.565298	-49.228960	-0.546159	-4.130319	 21.525730	 0.991547	-5.167930	 0.731704	 3.519349	-1.378229	 35.397820	-2.634230	-18.012030	 7.520952	 7.602103	-23.274430	-22.114310	-15.604120	 89.782200	 78.300290	 179.993900	 52.186260	 4.318213	-8.834060	-16.640370	-8.690784	 39.616120	-53.180500	-6.757302	-93.656920	 5.716227	 19.173190	-3.685159	 5.027444	 0.246877	-9.377972	-2.350882	 35.473990	 5.254307
-0.407185	 0.197480	 1.242180	-173.713100	 8.288368	 13.418230	 34.229970	-10.808770	 170.198600	-8.869697	-41.990960	-6.341134	 138.568700	 76.660320	-150.582600	-2.385833	 28.452760	 0.000004	-24.096940	-37.439120	 155.862500	 5.948544	-50.280460	 3.407082	-2.819918	 73.903420	 21.510020	 2.384659	 28.388700	-0.000001	 77.832180	-17.685990	 3.409758	 43.356660	 19.205110	 18.397600	-6.060445	-1.238467	-15.743490	-91.776230	 78.527400	-180.000000	-7.450585	 39.205610	-4.600024	-2.994635	-5.668001	-101.019300	 5.842057	-52.734830	 0.287007	-4.130319	 21.525730	 0.991547	-5.167930	 0.731704	 3.519349	-1.378229	 35.397820	-2.634230	-17.550550	 7.730190	 8.169556	-22.780290	-22.217940	-16.552830	 89.782130	 78.304300	 179.992900	 57.183630	-2.871569	-10.147010	-15.854850	-9.627262	 45.410530	-63.108460	 0.071334	-83.816020	 5.716227	 19.173190	-3.685159	 5.027444	 0.246877	-9.377972	-2.350882	 35.473990	 5.254307
-0.412255	 0.207455	 1.244685	-172.889100	 7.754917	 12.171180	 35.022580	-7.923698	 170.589800	-8.992640	-39.544440	-6.116546	 139.202400	 76.501910	-150.853100	-2.385833	 28.452760	 0.000004	-22.254110	-36.724160	 158.423000	 5.921912	-50.297150	 3.387367	-0.483157	 74.882430	 18.255660	 2.384659	 28.388700	-0.000001	 75.058690	-15.437020	 3.104732	 41.028020	 17.229590	 20.379620	-4.678965	-0.254553	-15.132410	-91.776210	 78.527380	-180.000000	-10.470470	 36.739980	 1.066913	-3.490618	-6.920947	-103.413900	 7.137374	-56.602380	 1.240968	-4.130319	 21.525730	 0.991547	-5.167930	 0.731704	 3.519349	-1.378229	 35.397820	-2.634230	-17.083400	 7.676626	 8.319005	-22.100510	-22.371980	-16.224180	 89.782100	 78.304250	 179.992200	 56.286730	-8.441859	-3.994465	-18.768250	-7.178468	 30.851720	-66.754900	-9.786949	-74.267400	 5.716227	 19.173190	-3.685159	 5.027444	 0.246877	-9.377972	-2.350882	 35.473990	 5.254307
-0.416279	 0.215913	 1.246881	-172.030600	 7.092203	 11.448350	 35.821300	-5.488938	 170.393400	-9.091055	-37.125810	-5.861148	 138.170300	 76.619500	-149.623200	-2.385833	 28.452760	 0.000004	-20.674520	-35.879240	 160.284300	 5.772435	-50.165270	 3.265846	 2.360932	 75.799280	 14.441230	 2.384659	 28.388700	-0.000001	 72.103530	-13.656410	 2.591096	 39.191240	 14.767880	 22.277080	-3.242297	 1.138998	-14.799920	-91.776220	 78.527380	-180.000000	-13.228600	 35.160080	 5.868036	-4.014346	-7.897410	-105.632100	 8.512728	-60.499640	 2.291859	-4.130319	 21.525730	 0.991547	-5.167930	 0.731704	 3.519349	-1.378229	 35.397820	-2.634230	-16.543540	 7.675375	 8.222907	-21.451370	-22.674080	-15.513470	 89.782120	 78.300870	 179.991500	 54.030540	-10.721990	 8.447027	-21.959610	-0.462775	 3.925126	-67.952420	-27.640240	-67.049580	 5.716227	 19.173190	-3.685159	 5.027444	 0.246877	-9.377972	-2.350882	 35.473990	 5.254307
-0.419291	 0.222415	 1.248856	-171.237700	 6.303154	 10.854280	 36.578270	-3.197569	 170.117600	-9.259145	-34.569920	-5.609520	 133.656600	 77.019710	-144.940400	-2.385833	 28.452760	 0.000004	-19.001880	-35.283570	 161.933200	 5.414360	-50.093750	 2.987200	 6.543549	 76.269070	 9.440252	 2.384659	 28.388700	-0.000001	 69.261590	-12.035770	 2.223898	 37.765760	 11.908890	 24.019880	-1.707000	 2.884938	-14.548350	-91.776140	 78.527400	 180.000000	-15.804700	 34.171410	 9.689600	-4.531664	-8.607708	-107.665300	 9.931007	-64.144470	 3.397071	-4.130319	 21.525730	 0.991547	-5.167930	 0.731704	 3.519349	-1.378229	 35.397820	-2.634230	-16.087400	 7.829164	 8.604519	-20.916410	-22.668920	-16.060620	 89.782100	 78.299420	 179.990700	 50.869420	-12.514720	 6.987480	-23.187360	-0.636878	 4.697639	-69.388260	-30.941130	-65.370790	 5.716227	 19.173190	-3.685159	 5.027444	 0.246877	-9.377972	-2.350882	 35.473990	 5.254307
-0.420633	 0.225700	 1.250175	-170.518800	 5.382822	 10.423750	 36.862640	-1.521783	 169.726700	-9.614506	-33.013660	-5.585520	 130.578900	 77.178520	-141.612300	-2.385833	 28.452760	 0.000004	-17.990640	-34.330040	 163.113800	 5.338503	-49.754670	 2.914374	 8.550363	 76.427180	 6.925946	 2.384659	 28.388700	-0.000001	 66.804920	-9.939657	 1.594898	 36.783790	 9.172758	 25.517590	-0.265939	 4.300991	-14.069470	-91.776220	 78.527360	-180.000000	-17.673760	 33.562080	 11.721000	-4.885730	-9.007418	-108.886700	 10.933470	-67.048840	 4.216892	-4.130319	 21.525730	 0.991547	-5.167930	 0.731704	 3.519349	-1.378229	 35.397820	-2.634230	-15.476970	 8.652930	 8.315360	-20.405410	-23.648060	-15.615280	 89.782160	 78.301570	 179.989700	 47.328490	-13.081280	 5.796442	-23.995030	-0.801170	 5.320493	-70.126110	-33.984670	-65.105830	 5.716227	 19.173190	-3.685159	 5.027444	 0.246877	-9.377972	-2.350882	 35.473990	 5.254307
-0.420839	 0.226820	 1.250878	-169.980100	 4.524395	 9.863337	 37.259450	-0.281700	 169.492600	-9.995983	-32.138030	-5.662043	 130.216300	 77.140660	-140.943900	-2.385833	 28.452760	 0.000004	-16.368040	-33.699010	 164.342700	 4.792360	-49.398570	 2.483687	 11.096970	 76.272260	 4.248034	 2.384659	 28.388700	-0.000001	 64.960680	-7.692413	 1.215763	 36.180860	 6.811668	 26.696970	 0.970471	 5.531320	-13.490800	-91.776180	 78.527380	 180.000000	-19.051750	 33.050450	 12.500240	-5.150949	-9.386789	-109.581400	 12.110040	-69.063950	 5.137354	-4.130319	 21.525730	 0.991547	-5.167930	 0.731704	 3.519349	-1.378229	 35.397820	-2.634230	-14.750930	 8.984466	 7.640025	-19.761920	-23.996980	-14.717400	 89.782140	 78.303790	 179.988400	 44.674550	-12.891580	 5.065367	-24.555350	-0.931736	 5.763112	-69.801350	-36.235960	-64.688700	 5.716227	 19.173190	-3.685159	 5.027444	 0.246877	-9.377972	-2.350882	 35.473990	 5.254307
-0.420840	 0.227014	 1.251476	-169.455400	 3.680185	 9.680978	 38.093930	 0.388270	 168.795500	-10.506970	-31.693710	-5.867930	 130.123600	 77.111940	-140.509100	-2.385833	 28.452760	 0.000004	-14.583860	-33.021030	 165.131900	 4.118780	-48.955980	 1.958593	 14.033350	 75.985250	 1.191488	 2.384659	 28.388700	-0.000001	 63.169870	-5.568964	 0.456782	 35.884000	 4.458721	 27.787770	 2.275351	 6.843976	-12.922330	-91.776200	 78.527360	-180.000000	-20.554150	 33.030280	 12.902840	-5.362627	-9.751348	-109.985300	 13.629950	-70.883280	 6.314966	-4.130319	 21.525730	 0.991547	-5.167930	 0.731704	 3.519349	-1.378229	 35.397820	-2.634230	-14.027240	 8.642369	 7.308367	-19.003440	-23.621840	-14.004510	 89.782110	 78.306850	 179.986800	 42.509660	-12.465700	 4.578068	-25.095760	-1.049555	 6.129285	-68.465700	-38.690530	-63.431840	 5.716227	 19.173190	-3.685159	 5.027444	 0.246877	-9.377972	-2.350882	 35.473990	 5.254307
-0.420950	 0.226509	 1.251961	-169.087400	 2.734379	 9.795508	 38.934680	 0.895887	 167.814100	-11.113960	-31.461410	-6.155644	 130.780400	 77.163060	-140.689500	-2.385833	 28.452760	 0.000004	-13.469940	-32.067250	 165.472100	 3.715214	-48.578520	 1.644473	 15.573520	 75.795130	-0.374228	 2.384659	 28.388700	-0.000001	 61.793260	-3.380924	-0.549159	 35.873520	 2.219286	 28.733180	 3.454543	 8.034082	-12.353640	-91.776180	 78.527400	 180.000000	-21.823830	 33.252900	 13.049150	-5.481627	-9.959474	-110.161900	 14.751010	-72.214810	 7.226496	-4.130319	 21.525730	 0.991547	-5.167930	 0.731704	 3.519349	-1.378229	 35.397820	-2.634230	-13.502290	 8.354176	 7.355072	-18.378070	-23.278010	-13.941050	 89.782100	 78.310130	 179.985500	 41.148020	-12.026740	 4.264493	-25.565080	-1.131785	 6.367684	-66.408690	-40.991550	-61.426540	 5.716227	 19.173190	-3.685159	 5.027444	 0.246877	-9.377972	-2.350882	 35.473990	 5.254307
-0.421130	 0.225652	 1.252351	-169.068700	 1.782562	 9.639220	 39.675090	 1.768937	 167.205300	-11.695580	-31.058750	-6.395178	 132.522100	 77.061160	-141.844100	-2.385833	 28.452760	 0.000004	-12.591450	-31.234730	 166.011200	 3.334637	-48.474050	 1.356756	 16.573440	 75.586010	-1.196640	 2.384659	 28.388700	-0.000001	 61.086930	-1.086986	-1.120030	 35.988170	 0.320297	 29.507340	 4.355995	 8.903268	-11.741990	-91.776250	 78.527430	-179.999900	-22.562430	 33.177690	 12.948800	-5.553240	-10.060110	-110.307600	 15.153800	-72.838460	 7.617829	-4.130319	 21.525730	 0.991547	-5.167930	 0.731704	 3.519349	-1.378229	 35.397820	-2.634230	-13.262860	 8.397451	 7.527540	-17.997120	-23.151470	-14.619310	 89.782190	 78.315570	 179.984100	 40.435760	-11.588830	 3.969834	-25.960770	-1.177855	 6.493230	-63.726430	-42.387010	-58.643100	 5.716227	 19.173190	-3.685159	 5.027444	 0.246877	-9.377972	-2.350882	 35.473990	 5.254307
